# xmcd CD database file
#
# Track frame offsets:
#	150
#	9241
#	17933
#	27116
#	36693
#	47291
#	59026
#	69436
#	78401
#	96093
#	105923
#	114991
#	125801
#	136498
#	158229
#	167571
#	184866
#
# Disc length: 2701 seconds
#
# Revision: 1
# Processed by: cddbd v1.5.2PL0 Copyright (c) Steve Scherf et al.
# Submitted via: jetAudio 5
#
DISCID=dd0a8b11
DTITLE=Joey Dee and Starliters - Twist Collection
DYEAR=1900
DGENRE=
TTITLE0=Peppermint Twist - Part1
TTITLE1=Peppermint Twist - Part2
TTITLE2=Hey, let's twist
TTITLE3=Roly Poly
TTITLE4=Joey's bluse (feat. Dave Brigati)
TTITLE5=Shout - Part1
TTITLE6=Irrestible you
TTITLE7=Crazy love
TTITLE8=Everytime (Ithink about yoy) -Part1
TTITLE9=What kind of love this
TTITLE10=Keeo your mind on what you're doing
TTITLE11=Help me pick up the pieces
TTITLE12=Baby, you're driving me crazy
TTITLE13=(Hot pastrami with) Mashed potatoes
TTITLE14=Dance, dance, dance
TTITLE15=Ya ya
TTITLE16=Fanny mae
EXTD=
EXTT0=
EXTT1=
EXTT2=
EXTT3=
EXTT4=
EXTT5=
EXTT6=
EXTT7=
EXTT8=
EXTT9=
EXTT10=
EXTT11=
EXTT12=
EXTT13=
EXTT14=
EXTT15=
EXTT16=
PLAYORDER=
